<?xml version="1.0" encoding="UTF-8" standalone="no"?>
<!-- Created with Inkscape (http://www.inkscape.org/) -->

<svg
   width="20.349623mm"
   height="24.000368mm"
   viewBox="0 0 20.349623 24.000368"
   version="1.1"
   id="svg1"
   xml:space="preserve"
   inkscape:version="1.3 (0e150ed6c4, 2023-07-21)"
   sodipodi:docname="cmpkomunikaicon.svg"
   inkscape:export-filename="cmpkomunika.svg"
   inkscape:export-xdpi="96"
   inkscape:export-ydpi="96"
   xmlns:inkscape="http://www.inkscape.org/namespaces/inkscape"
   xmlns:sodipodi="http://sodipodi.sourceforge.net/DTD/sodipodi-0.dtd"
   xmlns="http://www.w3.org/2000/svg"
   xmlns:svg="http://www.w3.org/2000/svg"><sodipodi:namedview
     id="namedview1"
     pagecolor="#ffffff"
     bordercolor="#000000"
     borderopacity="0.25"
     inkscape:showpageshadow="2"
     inkscape:pageopacity="0.0"
     inkscape:pagecheckerboard="0"
     inkscape:deskcolor="#d1d1d1"
     inkscape:document-units="mm"
     showguides="true"
     inkscape:zoom="1.6567111"
     inkscape:cx="472.01953"
     inkscape:cy="523.0242"
     inkscape:window-width="2560"
     inkscape:window-height="1571"
     inkscape:window-x="-9"
     inkscape:window-y="-9"
     inkscape:window-maximized="1"
     inkscape:current-layer="layer2" /><defs
     id="defs1" /><g
     inkscape:groupmode="layer"
     id="layer2"
     inkscape:label="Layer 2"
     style="display:inline;opacity:1"
     transform="translate(-48.156284,-60.756812)"><path
       id="path1"
       style="vector-effect:non-scaling-stroke;fill:#2381b5;fill-opacity:1;stroke-width:0.264583;stroke-linecap:round;stroke-linejoin:round;stroke-miterlimit:1;-inkscape-stroke:hairline;paint-order:fill markers stroke"
       d="m 58.769349,67.117377 c -1.458808,0.06827 -2.600388,3.416727 -3.109887,5.269446 -12.718474,7.721428 -6.056179,9.400952 -3.134176,9.358602 0,0 0.169548,-1.001865 0.254248,-1.594735 -7.552036,-0.14116 2.315104,-5.816183 2.315104,-5.816183 l -0.663525,2.061373 1.750281,-0.748274 1.863452,0.903304 -4.051433,1.905826 -0.973584,5.829619 c 0,0 1.298244,0.09889 1.778187,0.127124 0,0 0.6917,-3.684005 0.846976,-4.488615 0,0 2.046839,2.201652 3.034957,3.119189 0,0 2.075341,-2.131419 3.458704,-3.67006 0,0 0.635103,4.404132 0.635103,5.095813 0,0.691681 1.016279,-0.08441 1.792656,-0.07028 0.02823,-1.665682 -0.381311,-3.783045 -1.101225,-6.479191 10.71401,-7.792008 1.595095,-8.314581 -2.18798,-7.524088 -0.892834,-2.450441 -1.74372,-3.314633 -2.507858,-3.27887 z m 0.03256,2.825667 c 0.458958,-0.02268 0.954642,0.530825 1.374593,2.062407 -0.959886,0.705796 -1.298629,0.9741 -1.298629,0.9741 -0.606986,-0.352899 -1.425753,-0.945678 -1.425753,-0.945678 0.230267,-1.079871 0.7597,-2.061674 1.349789,-2.090829 z m 5.954158,1.477946 c 2.451732,0.03746 4.409226,1.018751 -3.196187,5.83582 -1.044579,-0.536408 -1.552877,-0.960148 -1.552877,-0.960148 l 2.752803,-1.425753 c -0.112929,-0.66345 -0.960148,-3.147612 -0.960148,-3.147612 0.252323,-0.08249 1.672168,-0.32193 2.956409,-0.302307 z m -7.572148,1.304313 1.147217,0.63562 -1.584916,1.086756 z m 3.232361,0 0.395325,1.623674 -1.425753,-0.988054 z m -1.601969,1.214397 1.87017,1.241784 -1.87017,0.833024 -1.913062,-0.833024 z m -0.02119,2.850988 2.357478,1.030428 -2.569352,2.696477 -2.216402,-2.399854 z" /><path
       style="fill:none;fill-opacity:1;stroke:#e93237;stroke-width:0.873125;stroke-linecap:round;stroke-linejoin:round;stroke-miterlimit:1;stroke-dasharray:none;stroke-opacity:1;paint-order:fill markers stroke"
       d="m 53.019581,62.90076 c 0,0 -1.552758,4.008935 1.101045,6.366301"
       id="path7" /><path
       style="fill:none;fill-opacity:1;stroke:#e93237;stroke-width:0.873125;stroke-linecap:round;stroke-linejoin:round;stroke-miterlimit:1;stroke-dasharray:none;stroke-opacity:1;paint-order:fill markers stroke"
       d="m 54.74173,63.790065 c 0,0 -0.861076,2.427948 0.705797,4.107748"
       id="path8" /><path
       style="fill:none;fill-opacity:1;stroke:#e93237;stroke-width:0.873125;stroke-linecap:round;stroke-linejoin:round;stroke-miterlimit:1;stroke-dasharray:none;stroke-opacity:1;paint-order:fill markers stroke"
       d="m 56.477995,64.608791 c 0,0 -0.225857,1.058699 0.282318,1.905656"
       id="path9" /><path
       style="fill:none;fill-opacity:1;stroke:#e93237;stroke-width:0.873125;stroke-linecap:round;stroke-linejoin:round;stroke-miterlimit:1;stroke-dasharray:none;stroke-opacity:1;paint-order:fill markers stroke"
       d="m 62.889494,61.193375 c 0,0 2.843674,3.224304 1.169172,6.354142"
       id="path12" /><path
       style="fill:none;fill-opacity:1;stroke:#e93237;stroke-width:0.873125;stroke-linecap:round;stroke-linejoin:round;stroke-miterlimit:1;stroke-dasharray:none;stroke-opacity:1;paint-order:fill markers stroke"
       d="m 61.581295,62.623506 c 0,0 1.647796,1.98019 0.758736,4.0983"
       id="path13" /><path
       style="fill:none;fill-opacity:1;stroke:#e93237;stroke-width:0.873125;stroke-linecap:round;stroke-linejoin:round;stroke-miterlimit:1;stroke-dasharray:none;stroke-opacity:1;paint-order:fill markers stroke"
       d="m 60.235436,63.992299 c 0,0 0.57814,0.91521 0.394319,1.885667"
       id="path14" /><circle
       style="fill:#e93237;fill-opacity:1;stroke:none;stroke-width:4.36562;stroke-linecap:round;stroke-linejoin:round;stroke-miterlimit:1;stroke-dasharray:none;stroke-opacity:1;paint-order:fill markers stroke"
       id="path15"
       cx="58.461288"
       cy="65.229897"
       r="0.66957921" /></g></svg>
